<?xml version="1.0" encoding="utf-8"?>
<!-- Generator: Adobe Illustrator 21.1.0, SVG Export Plug-In . SVG Version: 6.00 Build 0)  -->
<svg version="1.1" id="Layer_1" xmlns="http://www.w3.org/2000/svg" xmlns:xlink="http://www.w3.org/1999/xlink" x="0px" y="0px"
	 viewBox="0 0 612 792" style="enable-background:new 0 0 612 792;" xml:space="preserve">
<style type="text/css">
	.st0{fill:#FEFEFE;}
	.st1{fill:#36B3C3;}
	.st2{fill:#53595C;}
</style>
<g>
	<g>
		<g>
			<path class="st0" d="M299,534c-63.3,0-126.6,0-189.9,0.1c-3.3,0-4.2-0.5-4.2-4c0.1-112.6,0.1-225.3,0-337.9c0-3.8,1-4.3,4.4-4.3
				c126.8,0.1,253.6,0.1,380.4,0c3.4,0,4.4,0.5,4.4,4.3c-0.1,112.6-0.1,225.3,0,337.9c0,3.6-0.9,4-4.2,4
				C426.3,534,362.6,534,299,534z M328.9,428.2c0.2,0.2,0.4,0.4,0.6,0.6c0.1-0.4,0.2-0.8,0.3-1.2c-2.1-2.6-1.7-5.4-0.3-9.1
				C324.9,422.7,324.9,424.3,328.9,428.2z M288.5,293.5c-12.7-1.5-24.8,0.2-36.1,5.6c-22.6,10.7-39.6,27.8-53.5,48.2
				c-1.6,2.3-0.5,3.5,0.9,5c6.7,7,13.8,13.6,21.5,19.3c24.3,18.1,50.6,29,81.7,24.3c22.9-3.5,41.6-24.1,41.9-46.6
				c0.4-28-21.5-49.8-49.5-49.5c-17.6,0.2-30.9,9.6-36.1,25.4c-2.6,8.1-2.4,18.4,0.9,24c0.3-1.7,0.5-2.9,0.6-4.2
				c1.2-18.7,18.5-34.1,37.2-33c19.2,1.2,33.8,16.5,34.1,35.6c0.3,19.7-13.6,34.8-33.7,36.1c-32.3,2.1-57.9-11.7-79.9-34
				c-2.1-2.1-2.1-3.8-0.1-6.3C237.3,320.6,258.2,300.5,288.5,293.5z M310.5,397.6c1.5,0.5,2.1,0.8,2.7,0.9
				c10.8,1.1,21.3-0.8,31.1-5.1c23.8-10.4,41.2-28.1,55.8-49.1c1.6-2.3,0.5-3.5-1-5.1c-13.6-14.3-29-26.4-47-34.9
				c-13.5-6.4-27.7-10.1-42.9-9.7c9,4,17.7,8.2,26.1,13.2c16.3,9.5,32,19.7,44.8,33.8c2,2.2,2.4,3.8,0.3,6.2
				c-6.4,7.5-12.7,15-19.8,21.8C346.6,382.8,331,393.4,310.5,397.6z M297.7,332.8c-9.7,0-17.5,7.9-17.4,17.5
				c0.1,9.4,7.8,16.9,17.3,17c9.9,0.1,17.4-7.3,17.4-17.2C315.1,340.2,307.6,332.8,297.7,332.8z M255.6,429c-1.7-3.1-3.5-6-0.1-9
				c-0.1,0-0.3,0-0.4-0.1c-2.3-2-1.8-5-0.7-6.8c1.4-2.3,4.3-0.9,6.6-0.7c-3.4-0.2-6.9-0.4-9.7-0.6c-0.2,5.9,2.3,11.6-1.6,17.1
				C251.6,429,253.6,429,255.6,429z M297.9,412c0.7,5.9,1.5,11.5-0.7,17.1c2.3,0.5,4.3,0.5,3.7-3.7c-0.5-3.4-0.5-7,0.1-10.4
				C301.6,411.4,300.3,411.2,297.9,412z M269,421.5c0.2,2.2,1.6,4.2,0.5,6.4c-0.7,1.5,0.6,1.1,1.2,1.2c0.6,0,2.2,0.1,1.6-0.9
				C271.1,426,273.4,422,269,421.5z M283.5,428.5c-2.6-0.5-2.9-2.2-2.2-3.8c0.9-2.2-0.6-4-0.3-6c0.1-0.7-0.8-0.9-1.5-0.7
				c-1.8,0.6,0,1,0.1,1.5c0.1,2.1,0.7,4.4,0.1,6.3C278.6,429.3,279.7,429.7,283.5,428.5z M404.4,519.4c-2.1-3,0.7-6.5-1.1-10.1
				C402.8,513.2,402.9,516.4,404.4,519.4z"/>
			<path class="st1" d="M288.5,293.5c-30.4,7-51.2,27.1-70,50.1c-2,2.5-2,4.2,0.1,6.3c22,22.2,47.7,36,79.9,34
				c20.1-1.3,34-16.4,33.7-36.1c-0.3-19.2-15-34.5-34.1-35.6c-18.7-1.1-36,14.3-37.2,33c-0.1,1.2-0.3,2.5-0.6,4.2
				c-3.3-5.6-3.6-15.8-0.9-24c5.2-15.8,18.5-25.2,36.1-25.4c28-0.3,49.8,21.5,49.5,49.5c-0.3,22.5-19,43.2-41.9,46.6
				c-31.1,4.7-57.5-6.2-81.7-24.3c-7.8-5.8-14.9-12.3-21.5-19.3c-1.5-1.6-2.5-2.7-0.9-5c13.9-20.4,30.9-37.5,53.5-48.2
				C263.8,293.7,275.9,292,288.5,293.5z"/>
			<path class="st2" d="M310.5,397.6c20.5-4.2,36.1-14.8,50.3-28c7.2-6.7,13.5-14.3,19.8-21.8c2.1-2.5,1.7-4-0.3-6.2
				c-12.8-14.1-28.6-24.3-44.8-33.8c-8.4-4.9-17.2-9.2-26.1-13.2c15.1-0.4,29.4,3.3,42.9,9.7c18,8.5,33.3,20.6,47,34.9
				c1.5,1.5,2.6,2.7,1,5.1c-14.5,21-32,38.8-55.8,49.1c-9.9,4.3-20.3,6.1-31.1,5.1C312.6,398.4,312,398.1,310.5,397.6z"/>
			<path class="st2" d="M297.7,332.8c9.9,0,17.4,7.4,17.4,17.3c0,9.9-7.5,17.3-17.4,17.2c-9.5-0.1-17.2-7.6-17.3-17
				C280.2,340.7,288,332.8,297.7,332.8z"/>
			<path class="st2" d="M255.6,429c-2,0-4,0-6,0c3.9-5.4,1.4-11.2,1.6-17.1c2.8,0.2,6.3,0.4,9.7,0.6c-2.3-0.3-5.2-1.6-6.6,0.7
				c-1.1,1.7-1.5,4.7,0.7,6.8c0.1,0.1,0.3,0,0.4,0.1C252.1,422.9,253.9,425.8,255.6,429z"/>
			<path class="st2" d="M297.9,412c2.4-0.8,3.7-0.6,3.1,2.9c-0.6,3.4-0.6,7-0.1,10.4c0.6,4.3-1.5,4.2-3.7,3.7
				C299.4,423.5,298.6,417.9,297.9,412z"/>
			<path class="st2" d="M269,421.5c4.5,0.5,2.1,4.4,3.3,6.7c0.5,1-1,0.9-1.6,0.9c-0.6,0-1.9,0.3-1.2-1.2
				C270.6,425.7,269.2,423.8,269,421.5z"/>
			<path class="st2" d="M328.9,428.2c-3.9-3.9-3.9-5.5,0.6-9.7c-1.4,3.6-1.8,6.5,0.3,9.1C329.5,427.8,329.2,428,328.9,428.2z"/>
			<path class="st2" d="M283.5,428.5c-3.8,1.2-4.9,0.8-3.8-2.7c0.6-1.9,0-4.2-0.1-6.3c0-0.5-1.9-0.9-0.1-1.5c0.7-0.2,1.6,0,1.5,0.7
				c-0.3,2,1.2,3.9,0.3,6C280.6,426.3,281,428,283.5,428.5z"/>
			<path class="st1" d="M404.4,519.4c-1.4-3-1.5-6.3-1.1-10.1C405.1,512.9,402.3,516.4,404.4,519.4z"/>
			<path class="st2" d="M329.8,427.6c-0.1,0.4-0.2,0.8-0.3,1.2c-0.2-0.2-0.4-0.4-0.6-0.6C329.2,428,329.5,427.8,329.8,427.6z"/>
		</g>
	</g>
</g>
</svg>
